<svg id="Layer_1" xmlns="http://www.w3.org/2000/svg" viewBox="127.4 -109.2 255.1 289.3"><style>.st0{fill:#264de4}.st1{fill:#2965f1}.st2{fill:#ebebeb}.st3{fill:#fff}</style><path class="st0" d="M254.8 180.1l-104.2-28.9-23.2-260.4h255.1l-23.2 260.4-104.5 28.9z"/><path class="st1" d="M339.4 134.5L359.3-88H255v246l84.4-23.5z"/><path class="st2" d="M180.7 8.6l2.9 31.9H255V8.6h-74.3zM174.9-56l2.9 31.9H255V-56h-80.1zM255 91.6h-.1L219.3 82 217 56.5h-32l4.5 50.1 65.4 18.2h.1V91.6z"/><path class="st3" d="M329.1 8.6l5.8-64.6h-80v31.9h45L297 8.6h-42.1v31.9h39.3L290.5 82l-35.6 9.6v33.2l65.5-18.1.5-5.4 7.5-84.1.7-8.6z"/></svg>