<svg id="Layer_1" xmlns="http://www.w3.org/2000/svg" viewBox="127.4 -109.2 255.1 289.3"><style>.st0{fill:#e44d26}.st1{fill:#f16529}.st2{fill:#ebebeb}.st3{fill:#fff}</style><path class="st0" d="M382.6-109.2l-23.2 260.4-104.5 29-104.2-28.9-23.2-260.4h255.1v-.1z"/><path class="st1" d="M255 158l84.4-23.4 19.9-222.5H255V158z"/><path class="st2" d="M209.8-24.1H255V-56h-80.1l.8 8.6 7.8 88H255v-32h-42.3l-2.9-32.7zM217 56.5h-32l4.5 50.1 65.4 18.2h.1V91.6h-.1L219.3 82 217 56.5z"/><path class="st3" d="M254.9 40.6h39.3L290.5 82l-35.6 9.6v33.2l65.5-18.1.5-5.4 7.5-84.1.8-8.6H255v32h-.1zM254.9-24.1l77.1.1.6-7.2 1.5-16.2.8-8.6h-80v31.9z"/></svg>