<svg id="Layer_1" xmlns="http://www.w3.org/2000/svg" viewBox="256 -48.6 89.8 89"><style>.st0{fill:#5c95c4}</style><path class="st0" d="M343.7 8.6l-.4 1c-6.9 13.3-19 21.5-36.3 21.9-8.1.2-15.8-1.9-20.8-4.2-10.9-4.9-20-13.9-25-23.6-7.2-13.9-8.5-33.2 6.4-47.6.2 0-1.8 3.1-1.6 3.1l-.4 1.3C254.9-5.8 287.9 23 320.1 19.8c7.7-.8 17.6-5.1 23.6-11.2" transform="translate(0 8.828)"/><path class="st0" d="M324.3-5.3c8.1.1 16.5-3.7 21.5-9-4.4 11.1-17 18.3-34 16-14.2-1.9-27.8-16.2-29.2-30.6-1-10.4 2.6-16.7 8.6-24.2-2.1 4-2.9 7-3.1 8.9-2.3 22.6 18.1 38.8 36.2 38.9" transform="translate(0 8.828)"/><path class="st0" d="M345-33.3c-1.3 2.9-8.5 8.3-11.7 9-12.7 2.7-20.8-3.3-25-10.1-.6-1-1.8-3.8-2-4.5-1.6-5.6-.9-14.1 4-18.5-1.5 4.2-1.7 9-.9 12.2.5 1.9 1.9 5.2 3.3 7.3 2.6 3.8 4.3 4.7 7.6 6.8 1.5.9 3.1 1.6 3.8 1.8 3.3.9 10 3.4 20.9-4" transform="translate(0 8.828)"/></svg>